<svg xmlns="http://www.w3.org/2000/svg" viewBox="0 0 123.97 162.42"><defs><style>.cls-1{fill:#eee76c;}</style></defs><title>Asset 2</title><g id="Layer_2" data-name="Layer 2"><g id="Layer_1-2" data-name="Layer 1"><path class="cls-1" d="M105.19,74.84A204.19,204.19,0,0,0,79.78,50.5C75.46,47,71,43.11,66.25,40.18c-5.72-3.52-8.7,0-13.59,3.64a237.42,237.42,0,0,0-27,23.09c-1.89,1.9-3.77,4.63-5.93,6.23s-2.32,2-4-.44C13,68.78,12,61.8,11.39,57.19a50.86,50.86,0,0,1,6.05-31c5.41-10,13.15-16.87,23.32-21.66C60.67-4.8,84.16.79,99.24,16.45a46.82,46.82,0,0,1,12.48,25.5C113.29,52.27,113.19,67,105.19,74.84Z"/><path class="cls-1" d="M95.64,87.13c-10,8.27-22.71,13.32-35.81,13a50.42,50.42,0,0,1-18.31-3.92A53.7,53.7,0,0,1,31.94,91c-3.72-2.55-5.77-3.3-2.35-7.11A181.93,181.93,0,0,1,45.78,68.07C49.31,65,57.23,55.82,62.24,56.75c5.33,1,12.76,9.74,16.68,13.3A195.06,195.06,0,0,1,95.64,87.13Z"/><path d="M96.27,88.51A204.65,204.65,0,0,0,69,62.45c-4.88-3.9-6.65-5.78-11.91-1.82a201.39,201.39,0,0,0-15.39,13c-8.15,7.53-15.59,15.23-21.92,24.22-6.86,9.75-15.41,21-15.09,33.52C5,141,11,153,20.9,155.83a18,18,0,0,0,12.26-1.18c2.43-1.05,8.78-7.41,11.21-4.46,4.42,5.38-15.46,11.56-18.8,11.63C16,162,8.63,155.4,4.25,147.4c-12.46-22.8,5-46,19.66-62.81A201.21,201.21,0,0,1,48.34,61.13c3.24-2.64,8.23-8.26,12.49-9,4-.72,8.1,3.81,10.93,6.06,18,14.31,34.4,31.46,45.77,51.57,5.7,10.08,8.58,21.88,4.56,33.11-3.36,9.39-10.88,17.83-21.11,19.32A23.46,23.46,0,0,1,87,159.88c-2.16-1.1-13.06-9-7.15-10.84,3-.94,10.93,6.87,14.81,7.82,5.61,1.37,11-.77,15.28-4.49,9.19-8.07,11-21,7-32.1-2.05-5.68-5.32-10.82-8.74-15.77C104.62,99.26,101.21,92.59,96.27,88.51Z"/></g></g></svg>