<?xml version="1.0" encoding="utf-8"?>
<!-- Generator: Adobe Illustrator 21.1.0, SVG Export Plug-In . SVG Version: 6.00 Build 0)  -->
<svg version="1.1" id="Layer_1" xmlns="http://www.w3.org/2000/svg" xmlns:xlink="http://www.w3.org/1999/xlink" x="0px" y="0px"
	 viewBox="0 0 124 162.4" style="enable-background:new 0 0 124 162.4;" xml:space="preserve">
<style type="text/css">
	.st0{fill:#D6B754;}
</style>
<title>Asset 3</title>
<g id="Layer_2">
	<g id="Layer_1-2">
		<path class="st0" d="M105.2,74.8c-7.8-8.8-16.3-17-25.4-24.3C75.5,47,71,43.1,66.3,40.2c-5.7-3.5-8.7,0-13.6,3.6
			c-9.6,7-18.6,14.7-27,23.1c-1.9,1.9-3.8,4.6-5.9,6.2s-2.3,2-4-0.4C13,68.8,12,61.8,11.4,57.2c-1.3-10.7,0.8-21.6,6.1-31
			c5.4-10,13.1-16.9,23.3-21.7c19.9-9.3,43.4-3.7,58.5,11.9c6.7,7,11.1,15.9,12.5,25.5C113.3,52.3,113.2,67,105.2,74.8z"/>
		<path class="st0" d="M95.6,87.1c-10,8.3-22.7,13.3-35.8,13c-6.3-0.2-12.5-1.5-18.3-3.9c-3.4-1.4-6.6-3.2-9.6-5.2
			c-3.7-2.6-5.8-3.3-2.4-7.1c5.1-5.6,10.5-10.9,16.2-15.8c3.5-3.1,11.5-12.3,16.5-11.3c5.3,1,12.8,9.7,16.7,13.3
			C84.8,75.4,90.4,81.1,95.6,87.1z"/>
		<path class="st0" d="M96.3,88.5C88,79,78.9,70.3,69,62.4c-4.9-3.9-6.7-5.8-11.9-1.8c-5.3,4.1-10.5,8.4-15.4,13
			c-8.1,7.5-15.6,15.2-21.9,24.2c-6.9,9.8-15.4,21-15.1,33.5C5,141,11,153,20.9,155.8c4.1,1.1,8.4,0.6,12.3-1.2
			c2.4-1.1,8.8-7.4,11.2-4.5c4.4,5.4-15.5,11.6-18.8,11.6C16,162,8.6,155.4,4.3,147.4c-12.5-22.8,5-46,19.7-62.8
			c7.5-8.5,15.6-16.3,24.4-23.5c3.2-2.6,8.2-8.3,12.5-9c4-0.7,8.1,3.8,10.9,6.1c18,14.3,34.4,31.5,45.8,51.6
			c5.7,10.1,8.6,21.9,4.6,33.1c-3.4,9.4-10.9,17.8-21.1,19.3c-4.8,0.7-9.7-0.1-14-2.3c-2.2-1.1-13.1-9-7.2-10.8
			c3-0.9,10.9,6.9,14.8,7.8c5.6,1.4,11-0.8,15.3-4.5c9.2-8.1,11-21,7-32.1c-2.1-5.7-5.3-10.8-8.7-15.8
			C104.6,99.3,101.2,92.6,96.3,88.5z"/>
	</g>
</g>
</svg>
