<svg xmlns="http://www.w3.org/2000/svg" viewBox="0 0 315 45"><title>kuzla</title><g id="Layer_2" data-name="Layer 2"><g id="Layer_1-2" data-name="Layer 1"><path d="M0,45V0H7.5V22.5H45a7.2,7.2,0,0,0,5.29-2.2A7.2,7.2,0,0,0,52.5,15H60a14.44,14.44,0,0,1-4.41,10.61c-.21.22-.44.43-.67.64.23.21.46.43.67.66A14.41,14.41,0,0,1,60,37.5V45H52.5V37.5A7.55,7.55,0,0,0,45,30H7.5V45Z"/><path d="M90,45a14.46,14.46,0,0,1-10.61-4.39A14.46,14.46,0,0,1,75,30V15h7.5V30A7.51,7.51,0,0,0,90,37.5h30a7.53,7.53,0,0,0,7.5-7.5V15H135V30a14.44,14.44,0,0,1-4.41,10.61A14.43,14.43,0,0,1,120,45ZM105,7.5,120,0V7.5L105,15Z"/><path d="M191.25,45a14.46,14.46,0,0,1-10.61-4.39A14.46,14.46,0,0,1,176.25,30a7.55,7.55,0,0,0-7.5-7.5H150V15h18.75a14.41,14.41,0,0,1,10.59,4.41A14.41,14.41,0,0,1,183.75,30a7.51,7.51,0,0,0,7.5,7.5H210V45Z"/><path d="M229.39,40.61A14.46,14.46,0,0,1,225,30V0h7.5V30a7.51,7.51,0,0,0,7.5,7.5V45A14.46,14.46,0,0,1,229.39,40.61Z"/><path d="M270,45a14.46,14.46,0,0,1-10.61-4.39A14.46,14.46,0,0,1,255,30a14.43,14.43,0,0,1,4.39-10.59A14.44,14.44,0,0,1,270,15h30a14.41,14.41,0,0,1,10.59,4.41A14.41,14.41,0,0,1,315,30V45h-7.5V30a7.55,7.55,0,0,0-7.5-7.5H270a7.53,7.53,0,0,0-7.5,7.5,7.51,7.51,0,0,0,7.5,7.5h30V45Z"/></g></g></svg>