<svg xmlns="http://www.w3.org/2000/svg" viewBox="0 0 61.23 42.24"><defs><style>.cls-1{opacity:0.4;}.cls-2{fill:#eeea50;}</style></defs><title>yt-icon-y</title><g id="Layer_2" data-name="Layer 2"><g id="Layer_1-2" data-name="Layer 1"><g class="cls-1"><path class="cls-2" d="M30.6,42.21c-6.74,0-13.48-.09-20.22,0A10,10,0,0,1,0,31.91C.24,24.6.05,17.28.07,10A9.59,9.59,0,0,1,9.94,0Q30.64,0,51.33,0a9.64,9.64,0,0,1,9.86,9.83q.08,11.21,0,22.4c0,5.88-4.16,9.94-10,10-6.84,0-13.69,0-20.54,0Zm-8.69-21.1c0,2.13,0,4.25,0,6.37,0,2.58,1.48,3.44,3.78,2.22,4-2.14,8-4.26,12-6.51a3,3,0,0,0,1.48-2.07A3,3,0,0,0,37.69,19c-4-2.27-8.08-4.41-12.15-6.56-2.15-1.14-3.58-.3-3.62,2.11C21.88,16.76,21.91,18.94,21.91,21.11Z"/></g></g></g></svg>