<svg xmlns="http://www.w3.org/2000/svg" viewBox="0 0 510 60"><defs><style>.cls-1{fill:#eeea50;}</style></defs><title>zaznamy</title><g id="Layer_2" data-name="Layer 2"><g id="Layer_1-2" data-name="Layer 1"><path class="cls-1" d="M41.25,45a14.46,14.46,0,0,1-10.61-4.39A14.46,14.46,0,0,1,26.25,30,7.21,7.21,0,0,0,24,24.71a7.21,7.21,0,0,0-5.29-2.21H0V15H18.75a14.41,14.41,0,0,1,10.59,4.41A14.41,14.41,0,0,1,33.75,30a7.51,7.51,0,0,0,7.5,7.5H60V45Z"/><path class="cls-1" d="M90,45a14.46,14.46,0,0,1-10.61-4.39A14.46,14.46,0,0,1,75,30a14.43,14.43,0,0,1,4.39-10.59A14.44,14.44,0,0,1,90,15h30a14.41,14.41,0,0,1,10.59,4.41A14.41,14.41,0,0,1,135,30V45h-7.5V30a7.55,7.55,0,0,0-7.5-7.5H90A7.53,7.53,0,0,0,82.5,30,7.51,7.51,0,0,0,90,37.5h30V45ZM105,7.5,120,0V7.5L105,15Z"/><path class="cls-1" d="M191.25,45a14.46,14.46,0,0,1-10.61-4.39A14.46,14.46,0,0,1,176.25,30a7.55,7.55,0,0,0-7.5-7.5H150V15h18.75a14.41,14.41,0,0,1,10.59,4.41A14.41,14.41,0,0,1,183.75,30a7.51,7.51,0,0,0,7.5,7.5H210V45Z"/><path class="cls-1" d="M225,45V30a14.43,14.43,0,0,1,4.39-10.59A14.44,14.44,0,0,1,240,15h30a14.41,14.41,0,0,1,10.59,4.41A14.41,14.41,0,0,1,285,30V45h-7.5V30a7.55,7.55,0,0,0-7.5-7.5H240a7.53,7.53,0,0,0-7.5,7.5V45Z"/><path class="cls-1" d="M315,45a14.46,14.46,0,0,1-10.61-4.39A14.46,14.46,0,0,1,300,30a14.43,14.43,0,0,1,4.39-10.59A14.44,14.44,0,0,1,315,15h30a14.41,14.41,0,0,1,10.59,4.41A14.41,14.41,0,0,1,360,30V45h-7.5V30a7.55,7.55,0,0,0-7.5-7.5H315a7.53,7.53,0,0,0-7.5,7.5,7.51,7.51,0,0,0,7.5,7.5h30V45Z"/><path class="cls-1" d="M375,45V30a14.43,14.43,0,0,1,4.39-10.59A14.44,14.44,0,0,1,390,15h30a14.41,14.41,0,0,1,10.59,4.41A14.41,14.41,0,0,1,435,30V45h-7.5V30a7.55,7.55,0,0,0-7.5-7.5H408.75V45h-7.5V22.5H390a7.53,7.53,0,0,0-7.5,7.5V45Z"/><path class="cls-1" d="M502.5,60V45H465a14.46,14.46,0,0,1-10.61-4.39A14.46,14.46,0,0,1,450,30V15h7.5V30a7.51,7.51,0,0,0,7.5,7.5h37.5V15H510V60Z"/></g></g></svg>