<?xml version="1.0" encoding="utf-8"?>
<!-- Generator: Adobe Illustrator 22.0.1, SVG Export Plug-In . SVG Version: 6.00 Build 0)  -->
<svg version="1.1" id="Layer_1" xmlns="http://www.w3.org/2000/svg" xmlns:xlink="http://www.w3.org/1999/xlink" x="0px" y="0px"
	 viewBox="0 0 767.5 766" style="enable-background:new 0 0 767.5 766;" xml:space="preserve">
<style type="text/css">
	.st0{opacity:0.56;}
	.st1{fill:#FFFF00;}
</style>
<title>Asset 5</title>
<g id="Layer_2_2_" class="st0">
	<g id="Layer_1-2_1_">
		<path class="st1" d="M353,703.9c-9.3,0.3-18.5,0.3-27.8,0.4c-9.5,0-19-0.4-28.5-0.9c-7.2-0.4-14.4-0.9-21.6-1.7
			c-5.1-0.6-10.3-1-15.4-1.7c-5.7-0.7-11.3-1.5-17-2.5s-11.5-1.9-17.3-3c-29.9-5.8-58.9-14.3-86.7-26.7
			c-17.2-7.6-33.6-16.9-48.9-27.7c-13.7-9.7-26.3-21-37.5-33.7c-19.1-21.7-33.2-47.4-41.2-75.2c-2.8-9.6-4.9-19.3-6.3-29.2
			c-1.1-7.5-1.9-15-2.4-22.5C2.1,474.2,2,469,2,463.7s0.1-10.5,0.3-15.8c0.2-4.3,0.6-8.7,1.1-13c0.5-4.7,1-9.3,1.7-14
			c1-6.8,2.2-13.5,3.6-20.3c6.3-29.2,16.2-57.2,28.8-84.3c11.1-23.6,23.9-46.4,38.4-68.1c16.8-25.3,35.3-49.4,55.6-72
			c21.1-23.7,43.9-45.8,68.2-66.2c8.5-7.2,17.3-13.9,26.5-20.2c9.5-6.5,19.5-12.1,30-16.7c7.4-3.3,15.2-5.8,23.1-7.5
			c4-0.8,8.1-1.4,12.2-1.9c9.4-0.9,18.8-1,28.1-0.4c5.6,0.3,11.2,0.9,16.7,1.6c6.9,0.9,13.8,2,20.7,3.1c5.7,0.9,11.3,1.9,16.9,2.9
			c4.9,0.8,9.7,1.6,14.5,2.4c5.9,1,11.7,2,17.6,3c8,1.5,16,3,23.9,4.6c28.2,5.7,56,12.7,83.2,22c29.4,9.9,57.7,22.8,84.5,38.6
			c33.9,19.9,64.6,44.9,91.1,74c16.6,18.2,31.2,38.2,43.3,59.6c10,17.6,18.1,36.3,24,55.7c3.2,10.6,5.7,21.5,7.5,32.4
			c0.9,5.6,1.5,11.3,2,17c0.9,10.5,1,21.1,0.4,31.7c-0.3,5.7-0.9,11.4-1.7,17.1c-4.1,29.9-14.1,57.7-28.7,84
			c-13.4,24-30.1,46.1-49.5,65.6c-17.5,17.6-36.8,33.5-57.5,47.2c-38.5,25.8-80.6,45.7-124.9,59.2c-13.6,4.1-27.3,7.7-41.2,10.8
			c-3.2,0.7-6.5,1.3-9.8,1.6c-5.3,0.6-10.7,1.3-16,1.8c-3.6,0.4-7.3,0.6-11,0.9l-14,1.1c-0.5,0-0.9,0.1-1.4,0.1
			c-5.5,0.3-11,0.6-16.5,0.9c-7,0.4-14,0.7-20.9,1c-3.4,0.2-6.9,0.2-10.3,0.3L353,703.9z M345,668.8c7.5-0.2,14.9-0.2,22.4-0.5
			c4.9-0.2,9.8-0.4,14.7-0.8c6.5-0.5,13-1.1,19.5-1.7c4.9-0.5,9.8-1,14.7-1.7c6.8-0.9,13.6-2,20.4-3.1c8.7-1.5,17.3-3.2,25.9-5.2
			c25.3-5.8,50.1-13.8,74-23.9c25-10.4,49-23.3,71.6-38.4c19.6-13,37.7-28,54.2-44.8c14.9-15.1,27.9-31.9,38.9-50.1
			c19.3-32.3,30.1-67.1,31.8-104.7c0.6-11.7,0.3-23.4-1-35c-0.7-6.5-1.8-12.9-3.3-19.3c-3.6-15.6-9.2-30.7-16.6-44.9
			c-8.4-16-18.7-31-30.5-44.7c-11.5-13.4-24.1-25.8-37.5-37.2c-16.2-13.7-33.4-26.1-51.4-37.2c-33.8-20.9-69.7-38.2-107.2-51.5
			c-18.4-6.6-37.4-11.7-56.6-15.2c-8.1-1.5-16.2-2.9-24.4-4.2s-16.3-2.6-24.4-3.9l-24.1-3.9c-3.7-0.6-7.5-1.2-11.2-1.7
			c-4.5-0.6-9.1-1.1-13.6-1.6c-4-0.4-8-0.8-12-1c-7.9-0.5-15.8-0.3-23.7,0.4c-3.8,0.4-7.5,1-11.2,1.8c-5.9,1.4-11.6,3.4-17.1,6.2
			c-9.6,4.7-18.7,10.2-27.3,16.5c-11.4,8.4-22.2,17.7-32.3,27.7c-12.9,12.7-25.1,26.1-36.5,40.1c-16.2,19.7-31.4,40.2-46,61.2
			c-7.8,11.2-15.2,22.6-22.3,34.3C90,302,78.5,324.1,68.6,346.9c-9,20.6-16.1,41.9-21.3,63.7c-2.6,11.4-4.6,22.9-5.8,34.5
			c-0.7,7.8-1,15.5-0.9,23.3c0.1,10,1,19.9,2.7,29.7c5.4,31,20.3,59.6,42.6,81.9c7.2,7.2,14.8,14,22.9,20.2
			c15.4,11.8,31.9,21.9,49.4,30.2c23.4,11.1,47.9,19.6,73.1,25.4c8.6,2,17.2,3.8,25.9,5.3c5,0.9,9.9,1.6,14.9,2.3
			c4.1,0.6,8.2,1.1,12.3,1.6c3.2,0.4,6.4,0.8,9.6,1c3.9,0.4,7.7,0.7,11.6,0.9c5.7,0.4,11.4,0.8,17.1,1
			C330.1,668.6,337.6,668.6,345,668.8z"/>
		<path class="st1" d="M188.9,348.5c0-9.2,1.2-18.3,3.6-27.1c2.1-7.6,5.3-14.9,9.5-21.6c9.2-14.7,23.7-25.4,40.5-29.8
			c6.5-1.8,13.2-2.8,20-2.8c5.3-0.1,10.5,0.1,15.8,0.8c15.2,2.1,28.9,7.6,40.5,17.8c9,8,15.9,18.2,20,29.5c3.8,10.1,5.5,20.9,5,31.7
			c-0.4,12.3-3.8,24.3-9.8,35c-9.7,17.4-24.4,28.5-43.6,33.6c-7,1.8-14.2,2.7-21.4,2.6c-3.2,0-6.4-0.3-9.6-0.6
			c-5.6-0.6-11.1-1.4-16.6-2.6c-6.4-1.4-12.6-3.4-18.6-6.1c-2.9-1.3-5.7-2.9-8.4-4.6c-11.1-6.9-19.3-17.6-23.3-30
			c-2.1-6.3-3.3-12.9-3.5-19.6C189,352.6,188.9,350.6,188.9,348.5z M270.3,298.1c-3.3,0-6.6,0.4-9.9,1.1c-5.8,1.3-11.2,4.2-15.6,8.2
			c-2.9,2.6-5.5,5.5-7.7,8.7c-2.9,4.1-5.4,8.5-7.5,13.1c-1.8,3.9-3.1,8.1-3.7,12.4c-1.3,8.1,0.4,16.4,4.9,23.3
			c2.6,3.9,5.9,7.3,9.7,10.1c4.9,3.6,10.4,6.3,16.3,8c7.4,2.2,15.3,2.3,22.7,0.3c5.9-1.6,11.4-4.3,16.2-8c6.6-5,12.2-11.2,16.3-18.4
			c1.3-2.2,2.3-4.5,3.1-6.8c1.7-4.8,2.1-9.9,1.1-14.9c-0.6-3.1-1.7-6.2-3.2-9c-2.9-5.7-6.8-10.9-11.4-15.3
			C293.2,302.8,282,298.2,270.3,298.1L270.3,298.1z"/>
		<path class="st1" d="M441.6,556.5c-17.8-0.6-32.9-7.2-44.4-21c-4.2-4.9-7.2-10.7-9-16.8c-2.5-8.4-2.2-17.4,0.8-25.7
			c1.4-4.1,3.4-8,6-11.5c4.6-6.4,11.3-10.9,19-12.6c2.9-0.7,5.9-1,8.9-1c2.3,0,4.6,0.5,6.7,1.4c3,1.2,5.4,3.7,6.4,6.8
			c0.8,2.4,0.8,5,0.1,7.4c-0.6,2.1-1.5,4.1-2.8,5.9c-1,1.5-2.1,3-3.3,4.4c-1.7,2.2-3.2,4.5-4.4,7c-1,2.1-1.7,4.3-2,6.5
			c-0.4,2.4,0.6,4.9,2.5,6.4c1.2,0.9,2.5,1.6,3.9,2.2c1.9,0.8,3.9,1.4,5.9,1.8c2.9,0.6,5.9,1,8.8,1.1c3.3,0.1,6.6-0.8,9.5-2.5
			c2.2-1.3,4.1-2.9,5.9-4.7c2.2-2.2,4.2-4.5,6.1-7c2.2-2.9,4.4-5.8,6.6-8.8c2.4-3.1,4.7-6.2,7.2-9.2c2.6-3.2,5.5-6.2,8.6-8.8
			c4-3.5,8.7-6,13.7-7.5c3.2-0.9,6.5-1.5,9.8-1.7c3.9-0.3,7.8-0.4,11.7-0.2c3.4,0.1,6.9,0.1,10.3,0.2c6.2,0.1,12.4-0.7,18.3-2.5
			c5.1-1.4,10-3.3,14.8-5.5c2.9-1.3,5.8-2.7,8.7-4c1.7-0.8,3.4-1.4,5.1-2c3.3-1.2,6.9-0.9,10,0.7c1.4,0.8,2.8,1.5,4.2,2.4
			c1.2,0.8,2.4,1.9,3.3,3c3.7,4.1,4.5,10.1,1.9,15c-0.8,1.6-1.9,3.1-3.2,4.5c-1.6,1.6-3.4,3.1-5.3,4.4c-2.5,1.7-5.1,3.1-7.7,4.4
			c-9.4,4.7-19.5,8-29.9,9.8c-6.3,1.1-12.7,1.9-19,2.7c-3.7,0.4-7.5,1.1-11.2,1.9c-6.4,1.5-12.3,4.5-17.2,8.8
			c-2.4,2.1-4.7,4.4-6.8,6.8c-2.5,2.8-5,5.7-7.5,8.5c-3.5,3.9-7.2,7.7-11,11.3c-3.4,3.1-7,6-10.8,8.6c-5.5,3.8-11.6,6.5-18.1,8
			C449.2,556.2,445.4,556.6,441.6,556.5z"/>
		<path class="st1" d="M545.9,338.5c-6.3-0.2-12.6-1-18.8-2.5c-6.5-1.6-12.7-3.8-18.6-6.9c-8.1-4.1-15.2-9.9-20.9-17
			c-5.8-7.3-9.7-15.9-11.4-25.1c-1.4-7-1.6-14.1-0.8-21.2c0.7-6.5,2.1-12.9,4.3-19c2.8-7.8,7.2-14.9,13-20.8
			c7.3-7.4,16.6-12.4,26.8-14.4c5.5-1.2,11.1-1.6,16.7-1.2c10.6,0.8,21,3.9,30.4,9c9.9,5.4,18.3,13.2,24.3,22.8
			c4.6,7.4,7.8,15.6,9.3,24.2c3.5,19.9-2.3,40.4-15.8,55.5c-6,6.8-13.9,11.8-22.6,14.4C556.6,337.7,551.3,338.5,545.9,338.5z
			 M533.1,241c-2.6,0-5.3,0.2-7.9,0.8c-5,0.9-9.4,4-11.9,8.5c-0.5,0.9-1,1.8-1.4,2.7c-3.2,6.6-4.2,14.2-2.8,21.4
			c2.4,11.9,9,20.6,19.8,26c2.5,1.2,5.1,2.2,7.7,2.9c4.4,1.3,9,1.9,13.6,1.7c3.2-0.1,6.4-0.8,9.3-2c4.4-1.8,8-5.1,10.2-9.3
			c0.8-1.6,1.5-3.3,2-5.1c0.6-2.1,1-4.3,1.1-6.4c0.5-4.1,0.3-8.3-0.6-12.3c-1-4.6-3.1-8.9-6-12.6C557.7,246.6,546.5,241.5,533.1,241
			z"/>
	</g>
</g>
</svg>
