<svg xmlns="http://www.w3.org/2000/svg" viewBox="0 0 515.19 676.84"><defs><style>.cls-1{fill:#fff;}</style></defs><title>logo-w</title><g id="Layer_2" data-name="Layer 2"><g id="Layer_1-2" data-name="Layer 1"><path class="cls-1" d="M196.08,208.29l2.42-2.06c1.6-1.36,3.17-2.7,4.72-4q3.5-2.94,6.81-5.69c1.46-1.22,2.91-2.41,4.32-3.57s2.79-2.29,4.14-3.38c5.43-4.43,10.33-8.33,14.58-11.69l16.27-13.57a12.56,12.56,0,0,1,16-.09l16.53,13.47h0l.33.26,3.3,2.6,3.52,2.81,3.74,3q2.88,2.33,6,4.87l4.23,3.47,4.41,3.66,5.65,4.74,3.65,3.1,2.42,2.06,2.8,2.4q3.54,3.06,7.21,6.26,2.56,2.24,5.18,4.56,3.93,3.48,8,7.11l5.42,4.92.2.18c21.3,18.2,46.38,40.85,71.33,66.16,6.41,6.5,12.74,13.13,18.91,19.77A210.32,210.32,0,0,0,468,211.33C468,94.62,373.37,0,256.66,0S45.33,94.62,45.33,211.33A210.29,210.29,0,0,0,75.92,320.88c6.5-7,13.21-14.06,20-21,25-25.35,50.1-48,71.43-66.24,3.67-3.35,7.3-6.63,10.85-9.8C184.42,218.35,190.39,213.16,196.08,208.29Z"/><path class="cls-1" d="M515.12,551.55A154.07,154.07,0,0,0,511.87,525q-1.77-8.57-4.49-17.41a237.8,237.8,0,0,0-9.47-25.34c-1.08-2.47-2.2-4.95-3.38-7.44a350.24,350.24,0,0,0-21.39-38.43c-1-1.6-2.05-3.2-3.1-4.81q-3.17-4.81-6.54-9.7t-7-9.82q-3.6-4.93-7.41-9.93-1.91-2.5-3.86-5Q429.58,377,410.56,356.14q-2.79-3.06-5.64-6.13t-5.78-6.15q-5.85-6.18-12-12.39c-13.35-13.55-26.72-26.29-39.47-37.93l-5.42-4.92q-4-3.63-8-7.11-2.61-2.33-5.18-4.56-3.66-3.21-7.21-6.26l-2.8-2.4-2.42-2.06-3.65-3.1-5.65-4.74L303,254.73l-4.23-3.47q-3.11-2.55-6-4.87l-3.74-3-3.52-2.81-3.3-2.6-.33-.26h0l-21.62-17.62a4.6,4.6,0,0,0-5.86,0L233.07,237.9c-4.25,3.36-9.15,7.26-14.58,11.69q-2,1.64-4.14,3.38c-1.41,1.16-2.86,2.35-4.32,3.57q-3.32,2.74-6.81,5.69c-1.55,1.3-3.12,2.64-4.72,4l-2.42,2.06c-5.69,4.87-11.66,10.06-17.83,15.55q-5.94,5.31-12.12,11c-12.33,11.3-25.23,23.61-38.1,36.68q-6.39,6.48-12.47,12.9-3,3.21-6,6.41t-5.86,6.37h0q-23.36,25.69-41.65,50.27Q56.58,414.77,51.57,422q-3.33,4.82-6.46,9.58-1.56,2.39-3.06,4.75-2.52,3.93-4.87,7.84-3.55,5.86-6.76,11.63-2.13,3.84-4.13,7.65-3,5.7-5.63,11.31c-1.18,2.49-2.3,5-3.38,7.44s-2.1,4.91-3.08,7.35q-3.66,9.13-6.39,18-.69,2.25-1.32,4.5c-.48,1.71-.94,3.42-1.37,5.11-.66,2.62-1.27,5.22-1.8,7.8s-1,4.89-1.35,7.31q-.45,2.72-.78,5.4-.9,7.05-1.12,13.88c0,1.26-.06,2.51-.07,3.75,0,2.65.06,5.26.21,7.85q.26,4.82.89,9.5c.08.67.18,1.33.28,2q.39,2.6.88,5.16c.1.52.2,1,.31,1.55q.92,4.36,2.14,8.61,1.31,4.53,3,8.92c.5,1.32,1,2.63,1.57,3.93.4,1,.81,1.89,1.24,2.83.51,1.13,1,2.26,1.6,3.38s1.08,2.16,1.65,3.23q1.76,3.3,3.72,6.51c.87,1.41,1.75,2.82,2.68,4.2q3,4.53,6.53,8.89t7.43,8.55a160.6,160.6,0,0,0,14.4,13.48,99.38,99.38,0,0,0,54.68,22.56l.43,0c.86.07,1.72.11,2.57.16l1.63.11,1,0c1.06,0,2.12.07,3.17.07a97.94,97.94,0,0,0,12.11-.75c1.61-.2,3.21-.43,4.81-.71a96.54,96.54,0,0,0,11.81-2.82q2.32-.7,4.62-1.54a95.5,95.5,0,0,0,11.2-4.87c1.46-.75,2.9-1.53,4.32-2.36.72-.41,1.42-.83,2.13-1.26,2.1-1.3,4.17-2.68,6.18-4.15q2-1.47,4-3.06a93.44,93.44,0,0,0,9.31-8.65l1.74-1.89a10.39,10.39,0,0,0,1.13-1.55,9.5,9.5,0,0,0,1.29-4.39,10.05,10.05,0,0,0-.1-1.82,9.91,9.91,0,0,0-.59-2.13c-.12-.3-.26-.59-.41-.88a9.4,9.4,0,0,0-2.05-2.64c-.24-.21-.48-.41-.73-.59l-.26-.17a5.8,5.8,0,0,0-.52-.34l-.31-.17c-.16-.09-.32-.18-.49-.26l-.35-.15-.48-.19-.37-.12-.48-.14-.39-.09-.48-.09-.39,0-.49,0-.39,0h-.45l-.52,0-.43,0-.51.08c-.14,0-.28,0-.42.09l-.51.13-.41.12-.5.19-.39.16-.49.25-.36.19-.49.31-.33.22-.51.41-.26.22a9.25,9.25,0,0,0-.7.7h0c-.47.52-.94,1-1.42,1.54-.91,1-1.85,1.91-2.81,2.83-.31.3-.63.58-1,.87-.65.6-1.3,1.2-2,1.78l-1.19,1c-.61.51-1.21,1-1.83,1.49-.44.34-.88.66-1.32,1-.6.45-1.2.9-1.82,1.33-.45.32-.92.63-1.39.94s-1.21.8-1.83,1.19l-1.45.88L150.22,648l-1.5.8c-.63.34-1.26.66-1.9,1l-1.52.73-2,.87c-.51.23-1,.45-1.55.66s-1.32.52-2,.77-1,.4-1.56.58c-.68.24-1.37.46-2.05.68-.52.17-1,.34-1.56.49-.7.21-1.41.4-2.13.59l-1.52.41c-.75.18-1.49.34-2.24.5l-1.46.32c-.82.16-1.65.29-2.48.43l-1.24.21c-1.19.17-2.38.32-3.57.44l-.18,0c-1.26.12-2.51.21-3.77.28l-1.22,0c-.85,0-1.71.06-2.57.06H112c-.71,0-1.42,0-2.12-.05-.38,0-.77,0-1.15,0-1.17,0-2.35-.12-3.53-.22l-.18,0c-1.11-.1-2.23-.22-3.34-.36l-1.17-.18c-.78-.11-1.56-.22-2.34-.36l-1.38-.26L94.7,656l-1.46-.35c-.67-.16-1.35-.32-2-.5l-1.48-.43-2-.58-1.5-.5-1.92-.67-1.49-.57L81,651.59,79.51,651c-.62-.27-1.24-.56-1.86-.85l-1.44-.7c-.62-.31-1.24-.63-1.85-1s-.94-.49-1.4-.75c-.62-.35-1.24-.71-1.85-1.08l-1.34-.79-1.89-1.22c-.41-.27-.82-.53-1.23-.81-.68-.47-1.36-1-2-1.46l-1-.73q-1.52-1.12-3-2.34h0l-.41-.35q-2.35-2-4.57-4c-1-.87-1.92-1.75-2.85-2.63a123,123,0,0,1-14.91-17A104.12,104.12,0,0,1,31.31,605a97.76,97.76,0,0,1-6.25-13.63q-1-2.8-1.88-5.67-.42-1.42-.81-2.88A98.18,98.18,0,0,1,20,570.94a111.43,111.43,0,0,1-1-18.78q.17-5.56.85-11.2.84-7.05,2.41-14.19c.83-3.81,1.82-7.63,2.94-11.47.57-1.92,1.16-3.85,1.8-5.77.94-2.89,2-5.79,3.06-8.69.73-1.93,1.5-3.87,2.29-5.81.4-1,.8-1.94,1.21-2.9.83-1.94,1.68-3.88,2.57-5.83a319.29,319.29,0,0,1,20.63-37.81q1.82-2.89,3.71-5.78,3.77-5.77,7.78-11.51c8.68-12.42,18.14-24.66,28-36.59q2.58-3.09,5.19-6.16,7.83-9.19,15.94-18.1a211.17,211.17,0,0,0,279.4-.92q9.64,10.57,19,21.6,3.48,4.13,6.88,8.31l2.26,2.79c1.51,1.87,3,3.74,4.47,5.61l2.2,2.82q4.38,5.65,8.59,11.38,2.1,2.85,4.14,5.73t4.05,5.76q2,2.88,3.92,5.78,4.84,7.25,9.28,14.54,1.77,2.91,3.47,5.84,3.4,5.84,6.51,11.7,5.42,10.26,9.82,20.5c.41,1,.82,1.95,1.22,2.93a203.8,203.8,0,0,1,8,23.26q.8,2.89,1.49,5.77,1.38,5.76,2.3,11.46.45,2.85.8,5.69c.22,1.89.41,3.77.55,5.65s.24,3.74.3,5.61a112.5,112.5,0,0,1-.94,18.78q-.42,3-1,6t-1.36,5.86q-.39,1.46-.81,2.88-.86,2.87-1.88,5.67a98,98,0,0,1-9.37,18.86,107.69,107.69,0,0,1-7.3,10.13,124,124,0,0,1-8.73,9.68c-2.37,2.36-4.86,4.69-7.5,7-.87.77-1.77,1.52-2.68,2.28h0c-1,.81-1.95,1.58-2.94,2.33-.34.26-.69.5-1,.75-.66.48-1.33,1-2,1.44-.41.28-.83.55-1.25.82-.62.41-1.24.82-1.87,1.2l-1.36.82c-.6.35-1.21.71-1.82,1s-1,.52-1.44.78l-1.8.93-1.49.72c-.6.29-1.21.57-1.81.83l-1.52.66-1.84.74-1.54.59-1.86.65c-.51.17-1,.35-1.55.51s-1.26.39-1.9.57l-1.54.44-2,.49c-.5.12-1,.25-1.51.36-.68.15-1.37.28-2.06.42-.47.09-.95.19-1.43.27-.76.14-1.51.24-2.27.36-.41.06-.82.13-1.24.18-1.07.14-2.15.25-3.23.35l-.29,0c-1.17.1-2.35.17-3.52.22-.38,0-.77,0-1.15,0-.71,0-1.41.05-2.12.05h-.24c-.86,0-1.71,0-2.57-.06l-1.22,0c-1.26-.07-2.51-.16-3.77-.28l-.26,0c-1.16-.12-2.33-.26-3.48-.43l-1.31-.22c-.8-.13-1.61-.26-2.42-.42l-1.51-.33c-.73-.15-1.45-.31-2.17-.49-.54-.13-1.06-.28-1.59-.42-.69-.18-1.38-.37-2.06-.57s-1.08-.34-1.62-.51-1.33-.43-2-.66-1.08-.4-1.62-.6-1.29-.49-1.93-.75l-1.6-.68c-.63-.27-1.26-.55-1.89-.85s-1.05-.5-1.58-.75l-1.85-1L365,648l-1.81-1.06c-.5-.29-1-.59-1.49-.9s-1.2-.77-1.8-1.17-1-.63-1.42-1-1.2-.86-1.79-1.3-.9-.66-1.34-1c-.61-.48-1.21-1-1.81-1.47-.41-.34-.82-.66-1.22-1-.66-.56-1.3-1.16-1.94-1.76-.33-.29-.66-.58-1-.89-1-.91-1.89-1.85-2.8-2.82-.48-.51-.95-1-1.42-1.54-.23-.25-.47-.49-.71-.71l-.26-.21c-.17-.15-.33-.29-.51-.42l-.32-.21-.5-.32-.36-.19-.49-.25-.39-.16-.5-.19-.41-.12-.51-.13-.41-.09-.52-.08-.42,0-.53,0h-.45l-.39,0-.49,0-.39,0-.49.09-.37.09-.49.14-.37.12-.48.2-.35.14c-.17.08-.33.17-.49.26l-.31.17c-.18.1-.35.22-.53.34l-.24.17c-.25.18-.5.38-.74.59a9.5,9.5,0,0,0-3,5.65q-.06.45-.09.9a9.56,9.56,0,0,0,2.41,6.86l1.74,1.89c.59.63,1.18,1.24,1.79,1.85q2.85,2.87,5.9,5.45,3.4,2.89,7,5.43,1.94,1.36,3.93,2.61t4.14,2.46q1.55.87,3.12,1.68,3.27,1.68,6.66,3.1c1.5.63,3,1.22,4.54,1.77s3.07,1.07,4.62,1.54q3.71,1.13,7.47,2c1.44.32,2.89.61,4.34.86,3.19.55,6.41,1,9.64,1.19q3.63.27,7.28.27,4.2,0,8.4-.36c2.79-.24,5.58-.59,8.36-1.07s5.54-1.07,8.28-1.78,5.47-1.55,8.16-2.5A101.31,101.31,0,0,0,448.25,666a100.16,100.16,0,0,0,18.44-12.14,160.6,160.6,0,0,0,14.4-13.48c.87-.93,1.73-1.86,2.58-2.81q2.52-2.83,4.85-5.74c1.55-1.93,3-3.9,4.45-5.89.71-1,1.4-2,2.08-3,.93-1.38,1.81-2.79,2.68-4.2q2-3.21,3.72-6.51c.57-1.07,1.12-2.15,1.65-3.23s1.09-2.25,1.6-3.38c.43-.94.84-1.88,1.24-2.83.55-1.3,1.07-2.61,1.57-3.93a117.11,117.11,0,0,0,6.58-26.23q.63-4.68.89-9.5c.15-2.59.22-5.2.21-7.85C515.18,554.06,515.16,552.81,515.12,551.55Z"/></g></g></svg>