<?xml version="1.0" standalone="no"?>
<!DOCTYPE svg PUBLIC "-//W3C//DTD SVG 20010904//EN"
 "http://www.w3.org/TR/2001/REC-SVG-20010904/DTD/svg10.dtd">
<svg version="1.0" xmlns="http://www.w3.org/2000/svg"
 width="260.000000pt" height="260.000000pt" viewBox="0 0 260.000000 260.000000"
 preserveAspectRatio="xMidYMid meet">
<metadata>
Created by potrace 1.11, written by Peter Selinger 2001-2013
</metadata>
<g transform="translate(0.000000,260.000000) scale(0.100000,-0.100000)"
fill="#000000" stroke="none">
<path d="M1130 2571 c-284 -67 -494 -257 -593 -538 -30 -85 -31 -94 -31 -258
0 -135 3 -183 17 -230 27 -89 58 -145 80 -145 5 0 59 51 120 113 114 114 163
160 251 232 27 22 54 45 60 50 6 6 38 31 71 55 33 25 62 47 65 51 3 3 26 20
52 37 60 41 99 41 163 1 97 -62 303 -237 454 -386 169 -168 162 -164 205 -87
46 83 59 148 60 294 0 252 -66 425 -223 581 -100 99 -183 151 -336 208 -110
41 -291 51 -415 22z"/>
<path d="M1245 1743 c-78 -42 -421 -359 -550 -508 -33 -38 -68 -78 -77 -88 -9
-11 -47 -63 -85 -116 -113 -158 -168 -271 -199 -411 -59 -266 105 -565 330
-602 77 -13 156 5 265 60 88 44 119 78 101 112 -17 31 -52 22 -141 -37 l-72
-48 -91 0 c-85 0 -94 2 -136 30 -184 124 -242 374 -139 600 26 57 204 334 228
355 3 3 23 26 44 52 l38 47 46 -35 c122 -93 329 -164 478 -164 154 0 342 61
479 155 l69 47 39 -39 c48 -46 218 -300 269 -401 69 -136 85 -280 45 -409 -48
-152 -213 -279 -338 -258 -24 4 -71 28 -117 59 -94 64 -133 79 -156 62 -23
-16 -14 -43 27 -85 99 -101 233 -143 353 -110 46 13 105 39 121 54 7 5 24 19
39 30 31 22 105 123 128 175 70 154 58 339 -33 525 -34 70 -180 301 -199 315
-4 3 -22 25 -41 50 -86 112 -245 276 -375 389 -55 47 -102 88 -105 91 -25 25
-111 90 -137 103 -40 21 -69 21 -108 0z"/>
</g>
</svg>
