<svg version="1" xmlns="http://www.w3.org/2000/svg" width="666.667" height="666.667" viewBox="0 0 500.000000 500.000000"><path d="M238.5 16.9c-14.9 3.7-15.1 3.8-24.4 10.6-6.3 4.6-10.8 8.8-13.7 12.9-2.4 3.4-4.7 6.5-5.1 7.1-.8.9-6.8 9.8-10.5 15.3-.9 1.4-2 2.8-2.5 3.1-.5.3-2.9 3.5-5.5 7.1-4.8 6.8-5.5 7.7-14.3 17.5-2.9 3.3-7.5 8.5-10.1 11.5-2.7 3.1-6.2 7.1-7.9 8.9-3.9 4.5-32.3 32.7-36.7 36.6-3.6 3.2-7.2 7.2-15.8 18-3 3.7-6.5 7.7-7.6 8.9-3 2.9-13.4 17.3-13.4 18.4 0 .6-.7 1.2-1.5 1.6-.8.3-1.5 1.2-1.5 2.1 0 .9-.9 2.5-2 3.7-1.1 1.2-2.5 3.7-3.1 5.7-.6 2-2.6 5.9-4.5 8.7-1.9 2.8-4.3 8.2-5.4 12-1.1 3.8-2.8 8.6-3.9 10.9-1.5 3.4-6.8 23.6-8.9 34-1.3 6.7-.6 30.9 1.1 37.5 1 3.6 1.9 7.5 2.2 8.8 1.1 5 1.5 6.5 2.9 12.2.9 3.3 2.5 7.3 3.6 8.8 1.1 1.5 2.6 4.7 3.3 7.2 1.2 4.1 10.7 18.5 15.4 23.5 1 1.1 3.6 4.2 5.8 6.8 2.1 2.7 5.8 6.2 8.2 7.8 2.4 1.7 5.4 4 6.6 5.2 3.7 3.5 6.7 5.7 7.6 5.7.5 0 1.1.3 1.3.7.8 1.9 8.4 6.7 14 8.9 3.4 1.3 6.8 3 7.7 3.8.9.8 3 1.7 4.6 2.1 1.7.4 4.1 1 5.5 1.5 1.4.4 5 1.3 8 2 3 .6 6.2 1.4 7 1.6.8.2 1.6 1.6 1.7 3.1 0 1.6 1.7 9.1 3.6 16.8 3.2 13.4 3.7 14.5 9.5 22.6 3.4 4.9 7.9 9.8 10.4 11.4 2.3 1.7 4.5 3.2 4.8 3.5 1.2 1.2 9.6 6.8 10.3 6.8.7 0 1.9.3 8.2 1.7 1.1.2 5.8 1.4 10.5 2.6 7.8 1.9 11.7 2.1 48 2.5 39.1.4 43.3.1 55-3.1.3-.1 2.3-.5 4.5-1s4.2-1 4.5-1c4.9-1.3 7.2-2.3 10.9-4.9 2.4-1.7 6.4-4.5 8.8-6.2 2.4-1.7 5.9-5.3 7.8-8 6.2-8.7 8.9-12.9 9.1-13.9.1-.6.6-2.8 1.2-5s1.3-5.1 1.6-6.5c.3-1.4 1.3-5.4 2.2-9 .8-3.6 1.4-8 1.2-9.8-.4-2.8-.1-3.3 2.1-3.9 1.5-.3 5-1.2 8-1.9 3-.8 5.7-1.2 5.9-.9.3.3 1.2-.1 2.1-.9 2.1-1.8 11.3-6.6 12.7-6.6 1 0 15.1-9.9 27.6-19.5 3.6-2.8 7.6-6.7 8.9-8.8 1.3-2 2.6-3.7 3-3.7 1.1 0 15-20 17.1-24.7 1.1-2.6 3-6.2 4.2-7.8 1.2-1.7 2.3-3.9 2.4-5 .2-1.1 2-8.5 3.9-16.5 3.3-13.5 3.6-15.6 3.7-31 0-18-.5-23.6-3-33.2-.9-3.5-1.8-7.1-2-8.1-.2-1-.6-2.8-1-3.9-.3-1.1-.7-3-.8-4.1-.4-3.2-2.7-9.9-4.2-12.2-.7-1.1-2.2-4.8-3.3-8.2-1.1-3.3-3.6-8.4-5.6-11.1-2-2.8-3.8-6.1-4-7.3-.2-1.2-2.1-4.7-4.2-7.8-6-8.9-14.5-20.5-15.7-21.6-.7-.6-1.9-2-2.7-3.2-3.1-4.4-11.7-13.9-19.4-21.2-16.7-15.9-37.5-37.4-37.5-38.8 0-.3-1.2-1.6-2.6-2.9-1.4-1.3-4.8-5.2-7.5-8.7-2.7-3.4-5.5-6.9-6.2-7.7-5.5-6.8-15.3-21.1-16.9-24.8-2.7-6-19.5-29-22.8-31-1.4-.9-5-3.5-8-5.8-3-2.2-7.1-4.6-9-5.2-4.5-1.5-28.5-7.2-29.6-7.1-.5 0-7.6 1.8-15.9 3.8zm19 62.8c5.5 6.4 7.5 9.3 7.5 11 0 1.1 1.1 3.5 2.5 5.4 3.4 4.6 9.5 13.4 12.4 17.8 1.3 2 2.8 3.8 3.2 4.1.5.3 2.6 3.4 4.8 6.8 2.2 3.4 4.4 6.2 4.9 6.2.4 0 1.6 1.5 2.6 3.2 1.9 3.3 4 5.8 10.8 12.9 2 2.1 3.9 4.7 4.3 5.9.3 1.1 1 2 1.4 2 .5 0 2.8 2.1 5.2 4.7 2.4 2.7 11.1 11.4 19.4 19.5 16.7 16.3 16.6 16.2 23.2 23.7 2.7 2.9 5.6 6.2 6.6 7.2.9 1.1 1.5 1.9 1.3 1.9-.2 0 .9 1.4 2.5 3.1 1.6 1.7 2.9 3.7 2.9 4.4 0 .6.9 2 1.9 2.9 1.1 1 2.8 4.1 3.8 6.9 1 2.7 3 6.3 4.5 7.9 1.5 1.7 3.3 4.9 3.9 7.1.6 2.3 2.4 7 4.1 10.4 3.6 7.7 4.7 16.4 4.2 35.6-.3 10.9-.8 14.7-2.3 18.1-1 2.4-2.4 4.6-3 5-.6.4-1.5 2.4-2.1 4.5-.5 2-2.8 5.7-5 8.2-2.2 2.4-4.8 5.6-5.8 7.1-.9 1.6-2.2 2.8-2.8 2.8-.7 0-2.4 1-3.8 2.2-1.5 1.3-4 3.5-5.7 4.9-1.6 1.5-4.3 2.9-5.8 3.2-1.5.3-5 1.9-7.7 3.6-4.1 2.5-6.4 3.1-13.9 3.7-23.1 1.9-47.9-.4-50.5-4.7-.4-.5-1.7-1.2-3-1.4-1.3-.3-5.1-1.8-8.5-3.5-6.8-3.4-8.3-3.6-11-1.6-2.2 1.5-2.7 4-1.5 7 .7 2 1.8 8.2 2.5 15.1.6 5.8 3 13.4 4.6 14.5.4.3 1.9 4 3.4 8.3 1.6 4.4 3.4 8.4 4.1 9.1.7.7 1.9 2.9 2.7 4.7.8 1.9 2.1 4.1 2.8 4.9.8.8 2.5 3.1 3.8 5 1.3 1.9 3.5 4.5 4.9 5.7 1.4 1.1 2.2 2.7 1.9 3.5-.4 1.2-6.5 1.4-39.4 1.1-21.3-.1-39.8-.3-41-.3-1.8 0-2.1-.4-1.7-2.7.3-1.4 1.8-4.2 3.5-6 1.6-1.9 2.9-3.9 2.9-4.5 0-.7.9-2.2 2.1-3.4 1.1-1.2 3.1-4.8 4.4-7.9 1.3-3.2 2.9-6.6 3.7-7.5 2.9-3.5 4.6-7.8 5.9-14.5.7-3.9 2.3-8.5 3.5-10.2 1.2-1.8 2.7-6.3 3.4-10 .6-3.6 1.6-7.5 2.1-8.5.7-1.3.4-2.3-1.2-3.9-2.6-2.6-6-2.1-11.4 1.6-2.1 1.4-4.5 2.5-5.3 2.5-.9 0-4.7 1.6-8.6 3.5-8 3.9-12.5 4.5-33.1 4.8-11.5.1-23.6-.6-29.1-1.8-1.1-.2-5-2-8.8-3.9-3.8-2-7.4-3.6-8-3.6-.7 0-2.2-1.4-3.4-3-1.3-1.7-2.7-3-3.2-3-3.9 0-17.3-15.4-19.6-22.5-1-2.8-2.8-6.7-4.2-8.8-2.4-3.6-2.5-4.4-2.5-20 0-15.9 0-16.3 2.8-21.7 1.6-3 3-6.4 3.2-7.5.7-4.7 2.8-10.2 4.9-12.5 1.2-1.4 3.2-5 4.4-8 1.2-3 2.7-6.2 3.4-7 .6-.8 1.8-2.8 2.6-4.4.8-1.6 2.9-4.3 4.5-6.1 1.7-1.7 4.1-4.5 5.3-6.3 1.3-1.7 3.5-4.5 5-6.1 1.5-1.7 4.5-5.1 6.7-7.6s4.9-5.3 5.9-6.3c6.7-5.9 11.7-10.7 14.6-13.8.9-1.1 2.6-2.6 3.6-3.5 1-.9 2.6-2.5 3.5-3.5.9-1 4.2-4.3 7.3-7.2 3.1-3 6.4-6.7 7.3-8.3 1-1.6 2.5-3.2 3.5-3.5 1-.3 1.8-1 1.8-1.5 0-.6 1.6-2.7 3.5-4.7 8.7-9.3 21-23.9 27.3-32.5 2.4-3.1 4.7-5.7 5.1-5.7.5 0 1.4-1.4 2-3.2.6-1.7 1.9-3.7 2.9-4.4.9-.6 2.6-2.9 3.7-5s3.2-5.1 4.7-6.8c1.5-1.7 3.5-4.5 4.3-6.3 1.5-3 4.9-6.3 6.7-6.3.5 0 1.5.8 2.3 1.7z"/></svg>