<svg xmlns="http://www.w3.org/2000/svg" viewBox="0 0 77.01 80.72"><defs><style>.cls-1{fill:#f1f148;}</style></defs><title>1</title><g id="Layer_2" data-name="Layer 2"><g id="Layer_1-2" data-name="Layer 1"><path class="cls-1" d="M73.91,36.06c-3.26-6-8.33-10.74-13.22-15.34-.86-.81-1.68-1.58-2.48-2.35-3-2.92-6.11-5.73-9.08-8.44s-6-5.48-9-8.36L38.5,0,36.86,1.57c-3,2.88-6,5.66-9,8.36s-6.05,5.52-9.08,8.44l-2.48,2.35c-4.9,4.6-10,9.37-13.23,15.34a23,23,0,0,0,.33,23.59c5.5,9,13.18,10.93,18.65,11a24,24,0,0,0,8.4-1.45c-.6,2.46-1.36,3.8-2,4.25l-1,.71v6.59H49.55V74.13l-1-.71c-.64-.45-1.4-1.79-2-4.25a24,24,0,0,0,8.4,1.45c5.47,0,13.14-2,18.65-11A23,23,0,0,0,73.91,36.06Z"/></g></g></svg>