<svg xmlns="http://www.w3.org/2000/svg" viewBox="0 0 80.72 73.96"><defs><style>.cls-1{fill:#f1f148;}</style></defs><title>2</title><g id="Layer_2" data-name="Layer 2"><g id="Layer_1-2" data-name="Layer 1"><path class="cls-1" d="M77.15,11.48C71.39,2.07,63.36,0,57.64,0a25.78,25.78,0,0,0-14,4.05L40.36,6.12,37.05,4.05a25.76,25.76,0,0,0-14-4C17.36,0,9.33,2.07,3.57,11.48c-4.64,7.58-4.76,16.58-.33,24.68C6.66,42.42,12,47.42,17.12,52.26l2.61,2.47c3.19,3.07,6.42,6,9.54,8.87s6.31,5.77,9.45,8.79L40.36,74,42,72.39c3.14-3,6.35-6,9.45-8.79S57.8,57.8,61,54.73l2.61-2.47c5.14-4.83,10.46-9.84,13.88-16.1C81.91,28.06,81.79,19.06,77.15,11.48Z"/></g></g></svg>