<svg xmlns="http://www.w3.org/2000/svg" viewBox="0 0 76.96 80.72"><defs><style>.cls-1{fill:#f1f148;}</style></defs><title>3</title><g id="Layer_2" data-name="Layer 2"><g id="Layer_1-2" data-name="Layer 1"><path class="cls-1" d="M73.22,38a20.45,20.45,0,0,0-13.57-8.86q-.49-.09-1-.15a20.13,20.13,0,0,0,1.64-8c0-11.57-9.79-21-21.82-21S16.66,9.41,16.66,21a20.3,20.3,0,0,0,1.63,8c-.33,0-.65.09-1,.15A20.43,20.43,0,0,0,3.74,38,22.45,22.45,0,0,0,9,68.3a20.36,20.36,0,0,0,21.15,2.07,6.09,6.09,0,0,1-1.67,3.06l-1,.7v6.59H49.52V74.13l-1-.7a6.09,6.09,0,0,1-1.67-3.06A20.36,20.36,0,0,0,68,68.3,22.45,22.45,0,0,0,73.22,38Z"/></g></g></svg>