<?xml version="1.0" encoding="utf-8"?>
<!-- Generator: Adobe Illustrator 22.0.1, SVG Export Plug-In . SVG Version: 6.00 Build 0)  -->
<svg version="1.1" id="Layer_1" xmlns="http://www.w3.org/2000/svg" xmlns:xlink="http://www.w3.org/1999/xlink" x="0px" y="0px"
	 viewBox="0 0 124 162.4" style="enable-background:new 0 0 124 162.4;" xml:space="preserve">
<style type="text/css">
	.st0{fill:#FFFFFF;}
</style>
<title>Asset 4</title>
<g>
	<path class="st0" d="M103.1,75.5l-0.2-0.2c-7.4-8.4-15.5-16.2-24.2-23.1c-0.8-0.6-1.5-1.3-2.3-1.9c-3.4-2.8-6.9-5.6-10.5-7.9
		c-4.6-2.8-7.3-0.8-10.9,2.1c-0.6,0.4-1.1,0.9-1.7,1.3c-9.1,6.6-17.7,14-25.7,22c-0.7,0.7-1.3,1.4-2,2.2c-1.2,1.4-2.4,2.8-3.7,3.8
		L21.5,74c-0.9,0.7-1.4,1.1-2,1c-0.6-0.1-1-0.6-1.8-1.7c-2.7-3.9-3.7-11-4.2-14.9c-1.3-10.3,0.7-20.6,5.8-29.7
		c5-9.2,12.3-16,22.3-20.7c18.5-8.7,41-4.1,55.9,11.4c6.4,6.7,10.6,15.2,11.9,24.4c1,6.6,2.4,23-6.3,31.5L103.1,75.5z M61.8,40.5
		c1.3,0,2.7,0.4,4.3,1.4c3.7,2.3,7.2,5.2,10.6,7.9c0.8,0.6,1.5,1.3,2.3,1.9c8.6,6.9,16.7,14.7,24,23c8.3-8.4,7-24.4,6-30.9
		c-1.4-9.1-5.4-17.5-11.8-24.1C82.5,4.4,60.2-0.1,41.9,8.4C32,13.1,24.7,19.8,19.8,29c-5,9-7,19.1-5.7,29.4
		c0.5,3.8,1.4,10.8,4.1,14.7l0,0c0.6,0.9,1.1,1.5,1.5,1.5c0.4,0.1,0.8-0.3,1.6-0.9l0.4-0.3c1.3-0.9,2.5-2.3,3.6-3.7
		c0.7-0.8,1.3-1.6,2-2.2c8-7.9,16.6-15.3,25.7-22c0.6-0.4,1.2-0.9,1.7-1.3C57.2,42.2,59.3,40.5,61.8,40.5z"/>
	<path class="st0" d="M95.9,158.8c-3.5,0-7-0.8-10.2-2.5c-1.3-0.7-8.8-5.8-8.6-9c0.1-0.8,0.7-1.5,1.8-1.8c1.7-0.5,4.8,1.6,8.1,3.8
		c2.3,1.6,4.6,3.2,6.2,3.6c4.8,1.2,9.9-0.3,14.3-4.2c8.1-7.1,10.7-19,6.6-30.3c-2-5.4-5.1-10.4-8.3-15c-0.9-1.3-1.7-2.6-2.6-4
		c-2.6-4.1-5.2-8.3-8.7-11.2c-0.2-0.2-0.4-0.4-0.6-0.6l-0.2-0.3c-10,8-21.9,12.3-33.7,12c-6-0.1-11.9-1.4-17.5-3.7
		c-3.2-1.3-6.3-3-9.2-5c-0.3-0.2-0.6-0.4-0.9-0.6c-1.3-0.9-2.4-1.6-2.8-2.4c-2.8,3.2-5.3,6.3-7.5,9.5l-1.2,1.7
		c-6.3,8.9-13.4,18.9-13.1,30.1C8,138.2,13.8,149.4,23,152c3.8,1,7.9,0.6,11.5-1.1c0.6-0.3,1.5-0.9,2.6-1.7c2.8-2,6.6-4.7,8.4-2.5
		c0.7,0.9,0.9,1.8,0.4,2.8c-2.1,4.5-15.7,8.6-18.5,8.6c-8.1,0.1-15.6-4.9-20.5-13.8c-11.4-20.9,3.1-42.1,18.7-60
		c7.1-8.1,14.9-15.6,23.3-22.4c0.8-0.6,1.6-1.4,2.5-2.2c2.8-2.6,6.3-5.8,9.5-6.4c3.2-0.6,6.4,2.2,9,4.5c0.6,0.5,1.1,1,1.6,1.4
		c19.1,15.2,33.8,31.7,43.6,49.2c4.4,7.8,8.7,19.6,4.4,31.7c-2.8,8-9.7,17-20.3,18.5C98.1,158.7,97,158.8,95.9,158.8z M79.5,145.9
		c-0.2,0-0.3,0-0.5,0.1c-0.9,0.3-1.4,0.7-1.5,1.4c-0.2,2.6,6.5,7.5,8.3,8.5c4.1,2.1,8.6,2.8,13.2,2.2c10.4-1.5,17.1-10.4,19.9-18.2
		c4.3-12,0-23.6-4.3-31.3c-9.8-17.4-24.5-33.9-43.5-49c-0.5-0.4-1-0.9-1.6-1.4c-2.5-2.2-5.6-4.9-8.6-4.3c-3,0.5-6.4,3.7-9.2,6.2
		c-0.9,0.8-1.8,1.6-2.6,2.3C40.8,69,33,76.5,25.9,84.6c-15.6,17.8-30,38.9-18.7,59.5c4.7,8.7,11.9,13.6,19.7,13.6c0.1,0,0.2,0,0.3,0
		c2.6-0.1,16.1-4.1,18-8.4c0.4-0.8,0.3-1.6-0.3-2.3c-1.5-1.9-5.1,0.7-7.7,2.6c-1.1,0.8-2,1.4-2.7,1.7c-3.7,1.8-7.9,2.2-11.8,1.1
		c-9.4-2.7-15.3-14.1-15.6-23.5c-0.3-11.3,6.9-21.4,13.2-30.3l1.2-1.7c2.3-3.3,4.8-6.5,7.8-9.8l0.3-0.3l0.1,0.4
		c0.3,0.8,1.3,1.5,2.8,2.5c0.3,0.2,0.6,0.4,0.9,0.6c2.8,1.9,5.9,3.6,9.1,4.9c5.5,2.3,11.4,3.6,17.3,3.7c11.8,0.3,23.7-4,33.6-12.1
		l0.2-0.1l0.5,0.6c0.2,0.2,0.4,0.4,0.6,0.6c3.5,2.9,6.2,7.1,8.8,11.3c0.9,1.4,1.7,2.7,2.6,4c3.2,4.6,6.4,9.6,8.3,15.1
		c4.1,11.5,1.5,23.6-6.7,30.8c-4.6,4-9.8,5.5-14.8,4.3c-1.6-0.4-3.9-2-6.3-3.7C84,147.9,81.2,145.9,79.5,145.9z"/>
</g>
</svg>
